<?xml version="1.0" encoding="UTF-8" standalone="no"?>
<svg
   xml:space="preserve"
   width="2048"
   height="2048"
   viewBox="0 0 817.767 344.969"
   version="1.1"
   id="svg8"
   sodipodi:docname="dolphin-triforce-new.svg"
   inkscape:version="1.3.1 (9b9bdc1480, 2023-11-25, custom)"
   xmlns:inkscape="http://www.inkscape.org/namespaces/inkscape"
   xmlns:sodipodi="http://sodipodi.sourceforge.net/DTD/sodipodi-0.dtd"
   xmlns:xlink="http://www.w3.org/1999/xlink"
   xmlns="http://www.w3.org/2000/svg"
   xmlns:svg="http://www.w3.org/2000/svg"><defs
   id="defs8"><linearGradient
     id="linearGradient8"
     inkscape:collect="always"><stop
       style="stop-color:#291050;stop-opacity:0.69674248;"
       offset="0"
       id="stop8" /><stop
       style="stop-color:#7f00d0;stop-opacity:0.37014741;"
       offset="1"
       id="stop9" /></linearGradient><linearGradient
     inkscape:collect="always"
     xlink:href="#linearGradient8"
     id="linearGradient9"
     x1="0.0059991936"
     y1="1024.2557"
     x2="2048.037"
     y2="1024.2557"
     gradientUnits="userSpaceOnUse" /></defs><sodipodi:namedview
   id="namedview8"
   pagecolor="#ffffff"
   bordercolor="#000000"
   borderopacity="0.25"
   inkscape:showpageshadow="2"
   inkscape:pageopacity="0.0"
   inkscape:pagecheckerboard="0"
   inkscape:deskcolor="#d1d1d1"
   showgrid="false"
   inkscape:zoom="0.29723532"
   inkscape:cx="859.58829"
   inkscape:cy="916.78204"
   inkscape:window-width="1920"
   inkscape:window-height="1043"
   inkscape:window-x="1920"
   inkscape:window-y="0"
   inkscape:window-maximized="1"
   inkscape:current-layer="g9" />
    <g
   style="display:inline;fill:#6b4386;fill-opacity:1"
   id="g1"
   transform="translate(0,54.304863)">
        <path
   d="m 414.808,397.719 c 2.206,-3.814 42.042,-72.814 42.042,-72.814 h 16.127 L 414.808,425.65 356.651,324.904 h 16.13 c 0,0 39.621,68.62 42.027,72.814 M 537.429,213.283 h -16.142 l 18.709,-32.399 H 289.633 c 2.144,3.713 18.696,32.4 18.696,32.4 h -16.116 l -26.772,-46.36 h 298.748 z"
   style="fill:#6b4386;fill-opacity:1;fill-rule:nonzero;stroke:none"
   transform="matrix(1.33333,0,0,-1.33333,-139.358,567.534)"
   id="path1" />
    </g>
    <g
   style="fill:#6b4386;fill-opacity:1"
   id="g2"
   transform="translate(0,54.304863)">
        <path
   d="m 448.723,300.531 c 0,-0.835 0.063,-35.729 0.063,-36.545 h -41.792 c 0,0.816 -0.063,35.71 -0.063,36.545 z m 2.492,16.365 h -46.776 c -8.912,0 -19.058,-9.086 -19.058,-17.05 v -35.69 c 0,-7.972 10.146,-17.059 19.058,-17.059 h 46.776 c 8.9,0 19.045,9.087 19.045,17.058 v 35.69 c 0,7.965 -10.145,17.051 -19.045,17.051 m 171.804,0.224 h -41.917 c -8.7,0 -18.608,-8.973 -18.608,-16.832 v -36.114 c 0,-7.858 9.909,-16.826 18.608,-16.826 h 41.917 c 8.7,0 18.62,8.968 18.62,16.826 v 11.33 l -19.816,0.025 v -11.71 h -38.664 v 36.825 h 38.664 V 290.28 l 19.817,0.03 v 9.978 c 0,7.859 -9.921,16.833 -18.621,16.833 M 248.377,272.37 h 3.029 c 8.737,0 17.001,7.471 17.001,15.38 v 14.002 c 0,7.91 -8.264,15.381 -17.001,15.381 l -59.316,0.012 v -69.81 h 20.366 v 54.48 h 33.254 c 2.692,0 3.64,-2.063 3.64,-3.833 v -6.949 c 0,-2.156 -1.297,-3.352 -3.64,-3.352 h -24.031 l 0.386,-14.838 30.674,-25.477 h 26.699 c 0,0 -26.96,21.7 -31.061,25.003 m 285.375,-0.23 h 3.053 c 8.725,0 16.988,7.466 16.988,15.374 v 14.003 c 0,7.909 -8.263,15.38 -16.988,15.38 l -59.316,0.013 v -69.811 h 20.354 v 54.487 h 33.254 c 2.692,0 3.639,-2.07 3.639,-3.84 v -6.948 c 0,-2.156 -1.297,-3.346 -3.639,-3.346 h -24.031 l 0.387,-14.845 30.661,-25.477 h 26.71 l -31.072,25.01 M 186.68,317.12 h -82.16 v -16.09 h 30.324 v -53.57 h 21.513 v 53.57 h 30.325 z m 115.903,-0.031 H 281.02 v -69.723 h 21.563 z m 77.314,-16.059 v 16.09 h -65.498 v -69.78 h 21.575 v 27.235 h 37.59 v 16.073 h -37.59 v 10.382 z m 337.947,-37.592 h -47.612 v 11.137 h 33.204 v 16.072 h -33.204 v 10.382 h 46.852 v 16.091 h -68.876 v -69.79 l 69.636,0.017 z"
   style="fill:#6b4386;fill-opacity:1;fill-rule:nonzero;stroke:none"
   transform="matrix(1.33333,0,0,-1.33333,-139.358,567.534)"
   id="path2" />
    </g>
    <g
   style="fill:#6b4386;fill-opacity:1"
   id="g5"
   transform="translate(0,54.304863)">
        <path
   d="m 491.523,220.974 -9.298,12.906 -1.184,-0.53 -0.025,-12.376 h -4.425 v 17.568 h 6.93 l 7.292,-10.264 1.21,0.405 0.036,9.859 h 4.438 v -17.568 z m 51.813,0 -9.298,12.906 -1.196,-0.53 -0.013,-12.376 h -4.412 v 17.568 h 6.93 l 7.279,-10.264 1.209,0.405 0.037,9.859 h 4.438 v -17.568 z m 90.064,0 -9.298,12.906 -1.183,-0.53 -0.026,-12.376 h -4.425 v 17.568 h 6.943 l 7.28,-10.264 1.221,0.405 0.024,9.859 h 4.45 v -17.568 z"
   style="fill:#6b4386;fill-opacity:1;fill-rule:nonzero;stroke:none"
   transform="matrix(1.33333,0,0,-1.33333,-139.358,567.534)"
   id="path3" />
        <path
   d="m 510.282,238.542 h 4.923 v -17.568 h -4.923 z"
   style="display:inline;fill:#6b4386;fill-opacity:1;fill-rule:nonzero;stroke:none"
   transform="matrix(1.33333,0,0,-1.33333,-139.358,567.534)"
   id="path4" />
        <path
   d="m 571.89,234.94 v -13.966 h -5.145 v 13.966 h -7.043 v 3.603 h 18.945 v -3.603 z m 23.035,0 v -3.583 h 12.04 v -3.122 h -12.04 v -3.658 h 12.015 v -3.603 h -16.89 v 17.569 h 16.978 v -3.603 z m 75.892,-9.554 v 8.918 c 0,2.829 -1.707,4.238 -4.437,4.238 h -15.804 v -17.568 h 15.654 c 3.08,0 4.587,1.384 4.587,4.412 m -5.01,-0.81 h -10.495 v 10.363 h 10.494 z m 35.896,0.654 v 9.05 c 0,3.097 -1.296,4.263 -4.35,4.263 H 686.76 c -3.017,0 -4.388,-1.21 -4.388,-4.263 v -9.05 c 0,-2.972 1.434,-4.256 4.388,-4.256 h 10.594 c 2.98,0 4.35,1.259 4.35,4.257 m -4.749,-0.654 h -9.77 v 10.363 h 9.77 z"
   style="fill:#6b4386;fill-opacity:1;fill-rule:nonzero;stroke:none"
   transform="matrix(1.33333,0,0,-1.33333,-139.358,567.534)"
   id="path5" />
    </g>
    <g
   style="display:inline;fill:#6b4386;fill-opacity:1"
   id="g6"
   transform="translate(0,54.304863)">
        <path
   d="m 331.537,220.544 h -15.592 v 3.808 h 14.832 v 3.763 h -10.308 c -2.78,0 -4.388,0.693 -4.388,2.998 v 4.954 c 0,2.039 1.297,2.936 5.597,2.936 h 12.277 v -3.783 h -13.237 v -3.808 h 10.732 c 2.954,0 3.914,-1.227 3.914,-3.21 v -5.035 c 0,-1.508 -1.098,-2.623 -3.827,-2.623 m 65.173,-0.025 h -11.205 c -2.966,0 -4.4,1.378 -4.4,4.5 v 9.522 c 0,3.272 1.272,4.462 4.562,4.462 h 15.181 v -3.783 h -14.957 v -10.887 h 10.507 v 3.44 h -7.216 v 3.297 h 11.89 v -6.051 c 0,-3.122 -1.433,-4.5 -4.362,-4.5 m 37.18,0.025 v 15.312 c 0,1.913 -1.221,3.147 -3.9,3.147 h -11.854 c -2.68,0 -3.938,-1.234 -3.938,-3.147 v -15.312 h 4.76 v 7.26 h 10.184 v -7.26 z m -4.748,10.625 h -10.183 v 4.05 h 10.183 z m -60.924,4.045 v 3.776 H 353.05 c -3.304,0 -4.575,-1.183 -4.575,-4.474 v -9.51 c 0,-3.122 1.446,-4.506 4.4,-4.506 h 15.28 l 0.038,3.82 h -14.92 v 3.795 h 10.782 v 3.297 h -10.781 v 3.802 z"
   style="fill:#6b4386;fill-opacity:1;fill-rule:nonzero;stroke:none"
   transform="matrix(1.33333,0,0,-1.33333,-139.358,567.534)"
   id="path6" />
    </g>
    <g
   style="display:inline;fill:#6b4386;fill-opacity:1"
   id="g7"
   transform="translate(0,54.304863)">
        <path
   d="m 294.78,229.748 a 3.072,3.072 0 0 0 -3.079,-3.072 3.08,3.08 0 0 0 -3.078,3.072 3.083,3.083 0 0 0 3.078,3.085 3.075,3.075 0 0 0 3.08,-3.085 m 162.953,0 a 3.08,3.08 0 0 0 -3.079,-3.072 3.08,3.08 0 0 0 -3.079,3.072 3.083,3.083 0 0 0 3.08,3.085 3.083,3.083 0 0 0 3.078,-3.085"
   style="fill:#6b4386;fill-opacity:1;fill-rule:nonzero;stroke:none"
   transform="matrix(1.33333,0,0,-1.33333,-139.358,567.534)"
   id="path7" />
    </g>
    <g
   style="display:inline;fill:#6b4386;fill-opacity:1"
   id="g8"
   transform="translate(0,54.304863)">
        <path
   d="m 136.363,220.856 -9.298,13.105 -1.196,-0.543 -0.013,-12.563 h -4.425 v 17.837 h 6.931 l 7.291,-10.414 1.21,0.405 0.036,10.009 h 4.45 v -17.836 z m 131.707,4.262 v 9.05 c 0,3.096 -1.296,4.262 -4.362,4.262 h -10.595 c -3.004,0 -4.387,-1.216 -4.387,-4.263 v -9.049 c 0,-2.973 1.433,-4.263 4.387,-4.263 h 10.595 c 2.978,0 4.362,1.265 4.362,4.263 m -4.762,-0.66 h -9.77 v 10.363 h 9.77 z m -38.924,-3.602 c -3.141,0 -4.998,1.483 -4.998,4.499 v 8.726 c 0,2.84 2.057,4.61 5.186,4.61 h 13.41 v -3.658 h -13.785 v -10.52 h 13.786 v -3.658 z m -19.581,0 v 9.067 l -0.013,4.606 h -1.757 l -4.076,-13.673 h -4.536 l -4.1,13.673 h -1.72 l 0.011,-13.673 h -4.624 v 17.836 h 8.488 l 3.366,-12.602 h 1.707 l 3.39,12.602 h 8.45 v -17.836 z m -32.169,0 v 14.795 c 0,1.844 -1.234,3.04 -3.914,3.04 h -11.841 c -2.68,0 -3.951,-1.196 -3.951,-3.04 v -14.796 h 4.762 v 7.019 h 10.183 v -7.018 z m -4.362,10.264 h -10.196 v 3.914 h 10.196 z"
   style="fill:#6b4386;fill-opacity:1;fill-rule:nonzero;stroke:none"
   transform="matrix(1.33333,0,0,-1.33333,-139.358,567.534)"
   id="path8" />
    </g>
<g
   id="g9"
   transform="matrix(0.39930029,0,0,0.39930029,-0.00346422,-247.36928)"><path
     fill="#0057ab"
     d="m 2046.8,1538.65 c -6.813,-22.834 -49.283,-160.537 -120.831,-292.567 -94.261,-173.943 -175.33,-298.279 -310.402,-424.563 -43.445,-40.618 -84.6,-76.916 -127.448,-109.498 h 0.047 c 0,0 -0.329,-0.232 -0.926,-0.673 -0.801,-0.607 -1.602,-1.214 -2.403,-1.818 -15.987,-12.352 -83.345,-69.109 -59.382,-131.767 8.031,-21 27.421,-38.45 50.479,-52.569 l 124.091,-1.011 v -46 l -0.03,10e-4 c 0,0 0.016,-0.003 0.016,-0.003 0,0 -72.661,-24.686 -199.807,-16.53 -119.328,7.655 -226.545,77.432 -246.588,87.241 -64.265,-18.396 -137.59,-34.619 -223.344,-49.168 C 633.663,449.402 382.633,529.621 256.668,617.05 91.567,731.642 96.135,838.418 82.524,891.826 74.093,924.911 -0.884,986.089 0.014,1029.009 v 45.18 l 15.489,15.96 58.397,-19.849 6.985,-24.359 c 24.022,-8.59 50.325,-20.532 74.217,-30.359 59.615,-24.521 64.209,-37.858 227.133,-62.167 74.956,-11.184 153.843,-14.393 212.575,-14.886 22.855,48.26 79.68,147.46 178.133,195.042 64.027,30.944 135.739,46.795 192.883,54.915 l -7.493,37.679 113.668,16.846 v -45.969 l -0.087,-0.035 c 0.022,0 0.035,0 0.035,0 0,0 -95.434,-39.648 -154.146,-98.356 -39.956,-39.953 -49.518,-100.64 -51.552,-135.342 l 0.359,0.033 c 96.193,18.278 180.215,31.468 381.156,108.425 37.166,14.233 71.829,29.835 103.407,45.589 l -5.935,3.35 90.575,73.044 108.183,89.527 v -45.969 l -0.358,-0.332 c -1.596,-1.983 -124.799,-154.603 -331.827,-256.712 C 1040.709,895.872 900.226,854.177 705.582,844.737 492.826,834.418 336.06,861.736 336.06,861.736 c 0,0 4.385,-94.537 165.003,-169.88 139.666,-65.516 359.388,-76.481 611.558,-12.15 356.261,90.886 477.766,245.646 631.012,405.573 97.226,101.465 186.606,244.229 242.951,343.009 l -9.49,-4.259 29.19,75.387 41.753,89.096 v -46.264 l -1.237,-3.603 z"
     id="path2-3"
     style="fill:url(#linearGradient9)" /><path
     fill="url(#g)"
     d="m 1926,1292 c -94.261,-173.943 -175.33,-298.279 -310.402,-424.563 -43.446,-40.619 -84.601,-76.917 -127.45,-109.499 l 0.049,0.01 c 0,0 -0.34,-0.24 -0.962,-0.699 -0.773,-0.586 -1.547,-1.172 -2.321,-1.757 -15.904,-12.279 -83.413,-69.084 -59.428,-131.801 26.32,-68.822 174.556,-99.582 174.556,-99.582 0,0 -72.661,-24.686 -199.807,-16.53 -119.328,7.655 -226.545,77.432 -246.588,87.241 -64.265,-18.396 -137.59,-34.619 -223.344,-49.168 C 633.694,495.329 382.664,575.548 256.699,662.977 91.598,777.569 96.166,884.345 82.555,937.753 72.761,976.185 -26.834,1052.525 7.021,1094.12 c 21.122,25.95 91.411,-9.289 148.113,-32.611 59.615,-24.521 64.209,-37.859 227.133,-62.168 74.956,-11.184 153.843,-14.393 212.575,-14.886 22.855,48.26 79.68,147.46 178.133,195.042 132.934,64.246 299.005,63.438 299.005,63.438 0,0 -95.434,-39.648 -154.146,-98.356 -39.956,-39.953 -49.518,-100.64 -51.552,-135.342 l 0.359,0.033 c 96.193,18.278 180.215,31.468 381.156,108.425 175.815,67.334 295.91,165.256 295.91,165.256 0,0 -123.479,-153.98 -331.865,-256.76 C 1040.74,941.8 900.257,900.105 705.613,890.665 492.857,880.346 336.091,907.664 336.091,907.664 c 0,0 4.385,-94.537 165.003,-169.88 139.666,-65.516 359.388,-76.481 611.558,-12.15 356.261,90.886 477.766,245.646 631.012,405.573 163.107,170.22 304.146,456.685 304.146,456.685 0,0 -43.489,-151.357 -121.81,-295.887 z"
     id="path3-5"
     style="opacity:1;stroke:#6a4384;stroke-opacity:1" /></g></svg>
